<?xml version="1.0" encoding="iso-8859-1"?>
<!-- Generator: Adobe Illustrator 19.0.0, SVG Export Plug-In . SVG Version: 6.00 Build 0)  -->
<svg version="1.1" id="Capa_1" xmlns="http://www.w3.org/2000/svg" xmlns:xlink="http://www.w3.org/1999/xlink" x="0px" y="0px"
	 viewBox="0 0 511.999 511.999" style="enable-background:new 0 0 511.999 511.999;" xml:space="preserve">
<g>
	<g>
		<g>
			<path d="M127.764,0C70.573,0,24.044,46.528,24.044,103.72v240.44h15.087v-80.618h152.75v-15.087H39.131V103.72
				c0-48.872,39.76-88.633,88.633-88.633c23.542,0,45.789,9.238,62.618,25.99c16.775,16.853,26.014,39.1,26.014,62.643v304.559
				c0,48.873-39.76,88.633-88.632,88.633c-48.873,0-88.633-39.76-88.633-88.633v-40.072H24.044v40.072
				c0,57.192,46.529,103.72,103.72,103.72s103.719-46.528,103.719-103.72V103.72c0-27.561-10.798-53.587-30.433-73.311
				C181.35,10.799,155.324,0,127.764,0z"/>
			<path d="M71.189,103.72c0-31.196,25.379-56.574,56.574-56.574V32.059c-39.515,0-71.662,32.147-71.662,71.662v72.132h15.087
				V103.72z"/>
			<path d="M453.577,295.593l-10.447,10.885c17.348,16.649,27.645,38.509,29.449,62.199H279.864
				c3.861-49.779,45.601-89.104,96.355-89.104c18.518,0,36.509,5.249,52.026,15.181l8.133-12.708
				c-17.951-11.488-38.753-17.562-60.159-17.562c-61.611,0-111.735,50.124-111.735,111.735s50.124,111.735,111.735,111.735
				c61.612,0,111.736-50.124,111.736-111.735C487.955,345.501,475.746,316.868,453.577,295.593z M376.22,472.868
				c-50.754,0-92.493-39.325-96.355-89.104h192.709C468.713,433.544,426.972,472.868,376.22,472.868z"/>
			<path d="M360.19,447.882v-15.087c-22.356,0-40.544-18.188-40.544-40.545h-15.087C304.559,422.926,329.514,447.882,360.19,447.882
				z"/>
			<path d="M300.047,195.273c-13.394-17.123-20.474-37.696-20.474-59.494c0-50.754,39.324-92.493,89.104-96.355V232.11
				c-22.244-1.717-43.084-10.978-59.332-26.557l-10.441,10.89c20.897,20.036,48.356,31.07,77.317,31.07
				c61.612,0,111.736-50.124,111.736-111.735S437.831,24.044,376.22,24.044c-61.611,0-111.735,50.124-111.735,111.735
				c0,25.201,8.188,48.988,23.679,68.791L300.047,195.273z M383.763,39.424c49.78,3.861,89.105,45.601,89.105,96.355
				c0,50.754-39.325,92.493-89.105,96.355V39.424z"/>
			<path d="M360.19,79.205V64.118c-30.676,0-55.631,24.956-55.631,55.632h15.087C319.646,97.394,337.835,79.205,360.19,79.205z"/>
			<rect x="56.102" y="191.88" width="15.087" height="16.03"/>
		</g>
	</g>
</g>
<g>
</g>
<g>
</g>
<g>
</g>
<g>
</g>
<g>
</g>
<g>
</g>
<g>
</g>
<g>
</g>
<g>
</g>
<g>
</g>
<g>
</g>
<g>
</g>
<g>
</g>
<g>
</g>
<g>
</g>
</svg>
