<svg height="512pt" viewBox="0 0 512 512" width="512pt" xmlns="http://www.w3.org/2000/svg"><path d="m466.191406 410.421875-20.667968-7.175781c11.570312-9.164063 19.011718-23.320313 19.011718-39.191406v-15.148438c0-27.5625-22.425781-49.988281-49.988281-49.988281s-49.988281 22.425781-49.988281 49.988281v15.148438c0 15.871093 7.445312 30.027343 19.015625 39.191406l-20.671875 7.175781c-13.257813 4.605469-24.402344 13.050781-32.382813 23.820313h-55.835937v-22.035157c0-29.003906-18.410156-54.882812-45.808594-64.394531l-20.671875-7.175781c11.570313-9.164063 19.015625-23.320313 19.015625-39.191407v-15.148437c0-27.566406-22.425781-49.988281-49.988281-49.988281s-49.988281 22.425781-49.988281 49.988281v15.148437c0 15.871094 7.445312 30.027344 19.011718 39.191407l-20.667968 7.175781c-27.398438 9.511719-45.808594 35.390625-45.808594 64.394531v22.035157h-72.203125c-4.183594 0-7.574219 3.390624-7.574219 7.574218v62.609375c0 4.183594 3.390625 7.574219 7.574219 7.574219h315.078125c.339844 0 .675781-.03125 1.007812-.074219.332032.042969.667969.074219 1.011719.074219h179.753906c4.183594 0 7.574219-3.390625 7.574219-7.574219v-29.609375c0-29-18.40625-54.878906-45.808594-64.394531zm-86.484375-61.515625c0-19.210938 15.628907-34.839844 34.839844-34.839844s34.839844 15.628906 34.839844 34.839844v15.148438c0 19.210937-15.628907 34.839843-34.839844 34.839843s-34.839844-15.628906-34.839844-34.839843zm-237.316406-62.609375c0-19.210937 15.628906-34.839844 34.839844-34.839844 19.210937 0 34.839843 15.628907 34.839843 34.839844v15.148437c0 19.210938-15.628906 34.839844-34.839843 34.839844-19.210938 0-34.839844-15.628906-34.839844-34.839844zm50.730469 65.136719 7.359375 2.554687-23.25 40.339844-23.25-40.339844 7.359375-2.554687zm-98.195313 60.773437c0-22.558593 14.320313-42.6875 35.628907-50.085937l8.859374-3.074219 31.253907 54.234375c1.351562 2.347656 3.855469 3.792969 6.5625 3.792969s5.210937-1.445313 6.5625-3.792969l31.253906-54.234375 8.859375 3.074219c21.308594 7.398437 35.625 27.527344 35.625 50.085937v22.035157h-164.605469zm-79.777343 37.183594h306.882812c-3.195312 7.925781-4.933594 16.527344-4.933594 25.425781v22.035156h-301.949218zm481.703124 47.460937h-164.605468v-22.035156c0-22.558594 14.316406-42.683594 35.625-50.085937l30.785156-10.6875h31.78125l30.785156 10.6875c21.3125 7.402343 35.628906 27.527343 35.628906 50.085937zm0 0"/><path d="m464.03125 54.53125h-76.9375c-4.183594 0-7.574219 3.394531-7.574219 7.574219 0 4.183593 3.390625 7.574219 7.574219 7.574219h76.9375c18.097656 0 32.820312 14.722656 32.820312 32.824218v105.023438c0 18.097656-14.722656 32.820312-32.820312 32.820312h-104.015625c-4.183594 0-7.574219 3.390625-7.574219 7.574219v32.210937l-37.5625-37.566406c-1.421875-1.421875-3.347656-2.21875-5.355468-2.21875h-61.601563c-18.097656 0-32.824219-14.722656-32.824219-32.820312v-105.027344c0-18.097656 14.722656-32.820312 32.824219-32.820312h103.761719c4.183594 0 7.574218-3.390626 7.574218-7.574219 0-4.183594-3.390624-7.574219-7.574218-7.574219h-39.636719v-6.5625c0-26.449219-21.519531-47.96875-47.96875-47.96875h-216.109375c-26.449219 0-47.96875 21.519531-47.96875 47.96875v16.746094c0 4.183594 3.390625 7.574218 7.574219 7.574218 4.183593 0 7.574219-3.390624 7.574219-7.574218v-16.746094c0-18.097656 14.722656-32.820312 32.820312-32.820312h216.109375c18.097656 0 32.820313 14.722656 32.820313 32.820312v6.5625h-48.976563c-26.449219 0-47.96875 21.519531-47.96875 47.96875v83.3125h-79.273437c-4.183594 0-7.574219 3.390625-7.574219 7.574219v32.210937l-37.5625-37.566406c-1.421875-1.421875-3.347657-2.21875-5.355469-2.21875h-22.21875c-18.097656 0-32.820312-14.722656-32.820312-32.820312v-53.058594c0-4.183594-3.390626-7.574219-7.574219-7.574219-4.183594 0-7.574219 3.390625-7.574219 7.574219v53.058594c0 26.453124 21.519531 47.96875 47.96875 47.96875h19.078125l48.277344 48.277343c1.449219 1.449219 3.386719 2.21875 5.355469 2.214844.976562 0 1.960937-.1875 2.898437-.574219 2.828125-1.171875 4.675781-3.933594 4.675781-6.996094v-42.921874h71.699219v6.566406c0 26.449218 21.519531 47.964844 47.96875 47.964844h58.464844l48.273437 48.277343c1.449219 1.449219 3.386719 2.21875 5.355469 2.21875.976563 0 1.960937-.1875 2.898437-.578125 2.828126-1.171875 4.675782-3.933594 4.675782-6.996094v-42.921874h96.441406c26.449219 0 47.96875-21.515626 47.96875-47.964844v-105.027344c0-26.449219-21.519531-47.96875-47.96875-47.96875zm0 0"/></svg>